<svg width="64" height="64" viewBox="0 0 64 64" fill="none" xmlns="http://www.w3.org/2000/svg">
<path d="M64 44.8V6.4C64 2.88 61.12 0 57.6 0H19.2C15.68 0 12.8 2.88 12.8 6.4V44.8C12.8 48.32 15.68 51.2 19.2 51.2H57.6C61.12 51.2 64 48.32 64 44.8ZM30.08 33.696L35.296 40.672L43.552 30.368C44.192 29.568 45.408 29.568 46.048 30.368L55.52 42.208C56.352 43.264 55.616 44.8 54.272 44.8H22.4C21.088 44.8 20.32 43.296 21.12 42.24L27.52 33.696C28.16 32.864 29.44 32.864 30.08 33.696V33.696ZM0 16V57.6C0 61.12 2.88 64 6.4 64H48C49.76 64 51.2 62.56 51.2 60.8C51.2 59.04 49.76 57.6 48 57.6H9.6C7.84 57.6 6.4 56.16 6.4 54.4V16C6.4 14.24 4.96 12.8 3.2 12.8C1.44 12.8 0 14.24 0 16Z" fill="url(#paint0_linear)"/>
<defs>
<linearGradient id="paint0_linear" x1="0" y1="64" x2="64" y2="0" gradientUnits="userSpaceOnUse">
<stop stop-color="#11998E"/>
<stop offset="1" stop-color="#38EF7D"/>
</linearGradient>
</defs>
</svg>
